# xmcd
#
# Track frame offsets:
# 150
# 23125
# 40866
# 52000
# 64664
# 81333
# 101528
# 111792
# 121978
# 135671
# 149750
#
# Disc length: 2171 seconds
#
#
# Revision: 0
# Processed by: cddbd v1.4PL0 Copyright (c) Steve Scherf et al.
# Submitted via: FreeRIP 2.51 
#
DISCID=9c08790b
DTITLE=Red Sovine - Teddy Bear
DYEAR=1900
DGENRE=Country
TTITLE0=Teddy Bear
TTITLE1=Little Rosa
TTITLE2=It Ain't No Big Thing
TTITLE3=Last Mile Of The Way
TTITLE4=Bootlegger King
TTITLE5=Daddy
TTITLE6=Love Is
TTITLE7=1460 Elder Street
TTITLE8=Does Steppin' Out Mean Daddy Took A Walk
TTITLE9=18 Wheels Hummin' Home Sweet Home
TTITLE10=Sad Violins
EXTD=
EXTT0=
EXTT1=
EXTT2=
EXTT3=
EXTT4=
EXTT5=
EXTT6=
EXTT7=
EXTT8=
EXTT9=
EXTT10=
PLAYORDER=
